# xmcd
#
# Track frame offsets: 
#        150
#        8850
#        34191
#        38110
#        45907
#        70555
#        79850
#        96304
#        105460
#        115914
#        123536
#        147834
#        173030
#        179611
#        193232
#        198091
#        210621
#        228027
#        237993
#        262649
#
# Disc length: 3694 seconds
#
# Revision: 2
# Processed by: cddbd v1.5.2PL0 Copyright (c) Steve Scherf et al.
# Submitted via: ExactAudioCopy v0.99pb3
#
DISCID=050e6c14
DTITLE=Hans Teeuwen - Dat Dan Weer Wel CD1
DYEAR=2006
DGENRE=Nederlands
TTITLE0=Intro Piano - Hans Teeuwen
TTITLE1=Mars - Hans Teeuwen
TTITLE2=Waterbuffel - Hans Teeuwen
TTITLE3=Taxi - Hans Teeuwen
TTITLE4=Positief Denken - Literair Café
TTITLE5=Dat Dan Weer Wel - Hans Teeuwen
TTITLE6=Dansen - Sterk Ras
TTITLE7=Nederland - Hans Teeuwen
TTITLE8=Meester Van Dijk - Hans Teeuwen
TTITLE9=Improvisatie - Hans Teeuwen
TTITLE10=Middelbare School - Hans Teeuwen
TTITLE11=Stoned - Hans Teeuwen
TTITLE12=Genie - Hans Teeuwen
TTITLE13=Zo Alleen - Hans Teeuwen
TTITLE14=Unieke Zin - Hans Teeuwen
TTITLE15=Fistfucken - Hans Teeuwen
TTITLE16=Eerlijkheid - Hans Teeuwen
TTITLE17=De Jostiband - Hans Teeuwen
TTITLE18=De Bereden Politie - Hans Teeuwen
TTITLE19=De Bereden Politie II - Hans Teeuwen
EXTD=hans teeuwen
EXTT0=
EXTT1=
EXTT2=
EXTT3=
EXTT4=
EXTT5=
EXTT6=
EXTT7=
EXTT8=
EXTT9=
EXTT10=
EXTT11=
EXTT12=
EXTT13=
EXTT14=
EXTT15=
EXTT16=
EXTT17=
EXTT18=
EXTT19=
PLAYORDER=
